<svg xmlns="http://www.w3.org/2000/svg" viewBox="0 0 512 512" width="512" height="512">
  <!-- Background -->
  <rect width="512" height="512" rx="108" ry="108" fill="#262626"/>
  <rect width="512" height="512" rx="108" ry="108" fill="none" stroke="#262626" stroke-width="1.5"/>

  <!-- Lucide CloudCog icon, scaled to fit -->
  <g transform="translate(106, 106) scale(12.5)" fill="none" stroke="#d4a843" stroke-width="2" stroke-linecap="round" stroke-linejoin="round">
    <path d="m10.852 19.772-.383.924"/>
    <path d="m13.148 14.228.383-.923"/>
    <path d="M13.148 19.772a3 3 0 1 0-2.296-5.544l-.383-.923"/>
    <path d="m13.53 20.696-.382-.924a3 3 0 1 1-2.296-5.544"/>
    <path d="m14.772 15.852.923-.383"/>
    <path d="m14.772 18.148.923.383"/>
    <path d="M4.2 15.1a7 7 0 1 1 9.93-9.858A7 7 0 0 1 15.71 8h1.79a4.5 4.5 0 0 1 2.5 8.2"/>
    <path d="m9.228 15.852-.923-.383"/>
    <path d="m9.228 18.148-.923.383"/>
  </g>
</svg>
